<svg width="128" height="128" viewBox="0 0 128 128" fill="none" xmlns="http://www.w3.org/2000/svg">
<path d="M34.4 128V127.5C34.4 123.5 37.3 120.1 41.3 119.3C45.5 118.4 48.8 116.7 51.2 114.1C56.4 108.6 56 100.6 56 100.6L64 100.1C64 100.6 64.7 111.5 57.1 119.6C51.9 125.2 44.2 128 34.4 128Z" fill="#2681FF"/>
<path d="M93.6 128C83.8 128 76.1 125.2 70.9 119.6C63.3 111.5 64 100.6 64 100.1L72 100.6L68 100.3L72 100.6C72 100.7 71.6 108.6 76.8 114.1C79.2 116.7 82.5 118.4 86.7 119.3C90.7 120.1 93.6 123.5 93.6 127.5V128Z" fill="#2681FF"/>
<path d="M70 80.6H58V128H70V80.6Z" fill="#2681FF"/>
<path d="M64 105.5C62.7 98.6 58 74.4 59.2 96.6C60 111.1 56.7 121.6 53.7 128H74.3C71.3 121.6 68 111.1 68.8 96.6C70 74.4 65.3 98.6 64 105.5Z" fill="#2681FF"/>
<path d="M127.4 72.6C127.8 70 128 67.3 128 64.6C122.5 64.7 118.8 63.2 115.4 61.1C117.7 59.3 121.4 57.1 127.4 55.4C127 52.7 126.5 50.1 125.8 47.5C116.9 50 111.7 53.4 108.7 56.3C106.8 54.9 104.7 53.6 102.2 52.5C103.1 50 104.5 46.3 105.2 43.3C109.9 43.7 117.1 44.2 124.5 43C123.6 40.4 122.5 37.8 121.3 35.4C116.6 35.9 111.6 35.8 107 35.4C108.5 31.9 110.8 27.5 113.5 23.4C111.8 21.3 109.9 19.3 107.9 17.4C103.1 24.1 99.8 31.5 98.4 34.9C95.6 35 93.2 35.5 91.2 36.1C91.2 36 91.2 36 91.2 35.9C91.1 32.9 90.5 30.1 89.5 27.5C93 24.9 98.2 20.2 101.9 12.5C99.7 10.9 97.5 9.5 95.1 8.1C92.5 13.9 88.9 17.7 86.1 20C86.1 19.9 86 19.8 86 19.8C83.5 14.3 81 9.1 81.5 2.4C78.9 1.7 76.3 1.1 73.6 0.7C72.6 10 75.9 17 79 23.3C79.1 23.6 79.3 23.9 79.4 24.2C78.3 24.8 77.3 25.4 76.3 26C74.1 24 69.7 20.2 64.2 17.4C66.6 12.5 68.3 6.9 67.9 0.2C66.6 0.1 65.3 0 64 0C62.6 0 61.2 0.1 59.9 0.1C60.3 5.3 59.1 9.6 57.1 13.7C53.3 10.3 50.7 5.2 49.1 1.7C46.5 2.3 43.9 3.1 41.4 4.1C43.3 8.6 47.1 16.1 53 20.8C52.8 21.1 52.6 21.5 52.4 21.8C51.6 23.1 50.7 24.5 49.9 25.9C49.8 26 49.8 26.1 49.7 26.2C43 23.9 37.4 12.5 35.2 6.8C32.8 8 30.4 9.4 28.2 10.9C30.6 17 36.8 29.9 46.5 33.6C46.1 35.3 45.9 36.8 45.8 38.1C41.5 37.7 37.2 38.8 33.4 40.2C30.1 32.4 26.4 22.8 24.2 13.9C21.8 15.8 19.6 17.8 17.5 20C18.3 23 19.3 25.9 20.3 28.9C18.1 28.9 15.2 28.4 11.7 27.1C10.1 29.3 8.7 31.6 7.4 34C12.8 36.2 17.4 36.9 20.8 36.9C21.7 36.9 22.5 36.9 23.2 36.8C24.1 39 24.9 41.1 25.8 43.1C24.1 43.6 22.5 44.1 21 44.2C15 44.8 9 41.6 5.1 38.9C4 41.4 3.1 44 2.4 46.7C5.6 48.7 9.6 50.7 14.1 51.7C12.3 54.8 9.6 58.6 6.8 60.4C4.7 60 2.6 59.3 0.3 58.4C0.1 60.1 0 62 0 64C0 64.9 0.1 65.7 0.1 66.6C14.8 71.5 25.3 66.9 33.2 63.5C38.2 61.3 42.2 59.6 45.9 60.4C55.5 62.4 56 71.1 56 72V114H72V75.7C72 75.6 71.9 67.7 77 62.6C80 59.5 84.4 58 90 58C97.7 58 101.8 61 106.5 64.6C111.7 68.3 117.3 72.6 127.4 72.6ZM30 56.2C26.2 57.9 22.3 59.6 17.9 60.4C20.5 57 22.3 53.5 23.1 51.9C25.2 51.6 27.2 51 29.2 50.4C30.1 52.4 31 54.2 31.7 55.6C31 55.7 30.5 55.9 30 56.2ZM47.5 52.5C44.6 51.9 41.8 52.1 39.1 52.7C38.4 51.4 37.6 49.6 36.6 47.5C44 45 48.6 44.8 53.7 52.5C54.5 53.7 55.2 55 55.9 56.2C53.7 54.6 51 53.2 47.5 52.5ZM65.3 57.8C64.1 54.5 62.5 51.2 60.4 48.1C58.4 45 56.2 42.9 54 41.3H54.1C54.1 41.2 53.4 39.5 54.1 36.3C56.8 37.4 60.4 39.5 62.8 43.5C65.1 47.2 65.9 52 65.3 57.8ZM65.8 34.5C63 31.8 59.9 30 57.3 28.9C57.9 27.9 58.5 27 59.1 26C59.5 25.4 59.8 24.8 60.2 24.3C64.3 26.3 67.7 28.9 69.8 30.8C68.3 32.1 66.9 33.4 65.8 34.5ZM75.5 53.7C74.8 54.1 74.1 54.6 73.5 55.1C73.6 49.9 72.7 45.2 70.6 41.1C72.9 38.6 77.3 34.4 82.5 31.6C82.9 33.1 83.2 34.6 83.3 36.2C83.6 47.2 75.8 53.4 75.5 53.7ZM94.4 50.3C93 50.1 91.6 50 90 50C89.4 50 88.8 50 88.2 50.1C88.9 48.6 89.6 47 90.1 45.2C91.1 44.7 93.4 43.6 96.9 43.1C96.2 45.5 95.2 48.3 94.4 50.3Z" fill="#2681FF"/>
</svg>
